<mxfile host="app.diagrams.net" agent="Mozilla/5.0 (Windows NT 10.0; Win64; x64) AppleWebKit/537.36 (KHTML, like Gecko) Chrome/131.0.0.0 Safari/537.36" version="24.8.6">
  <diagram id="C5RBs43oDa-KdzZeNtuy" name="Page-1">
    <mxGraphModel dx="750" dy="373" grid="1" gridSize="10" guides="1" tooltips="1" connect="1" arrows="1" fold="1" page="1" pageScale="1" pageWidth="827" pageHeight="1169" math="0" shadow="0">
      <root>
        <mxCell id="WIyWlLk6GJQsqaUBKTNV-0" />
        <mxCell id="WIyWlLk6GJQsqaUBKTNV-1" parent="WIyWlLk6GJQsqaUBKTNV-0" />
        <mxCell id="8Eqp4wqRQ_a_KoW9BMZ2-0" value="start" style="ellipse;whiteSpace=wrap;html=1;" vertex="1" parent="WIyWlLk6GJQsqaUBKTNV-1">
          <mxGeometry x="300" y="30" width="120" height="70" as="geometry" />
        </mxCell>
        <mxCell id="8Eqp4wqRQ_a_KoW9BMZ2-2" value="end" style="ellipse;whiteSpace=wrap;html=1;" vertex="1" parent="WIyWlLk6GJQsqaUBKTNV-1">
          <mxGeometry x="294" y="505" width="120" height="80" as="geometry" />
        </mxCell>
        <mxCell id="8Eqp4wqRQ_a_KoW9BMZ2-8" style="edgeStyle=orthogonalEdgeStyle;rounded=0;orthogonalLoop=1;jettySize=auto;html=1;entryX=0.5;entryY=0;entryDx=0;entryDy=0;" edge="1" parent="WIyWlLk6GJQsqaUBKTNV-1" source="8Eqp4wqRQ_a_KoW9BMZ2-3" target="8Eqp4wqRQ_a_KoW9BMZ2-7">
          <mxGeometry relative="1" as="geometry" />
        </mxCell>
        <mxCell id="8Eqp4wqRQ_a_KoW9BMZ2-3" value="nháº­p a,b" style="shape=parallelogram;perimeter=parallelogramPerimeter;whiteSpace=wrap;html=1;fixedSize=1;" vertex="1" parent="WIyWlLk6GJQsqaUBKTNV-1">
          <mxGeometry x="294" y="210" width="120" height="60" as="geometry" />
        </mxCell>
        <mxCell id="8Eqp4wqRQ_a_KoW9BMZ2-5" style="edgeStyle=orthogonalEdgeStyle;rounded=0;orthogonalLoop=1;jettySize=auto;html=1;entryX=0.548;entryY=0.045;entryDx=0;entryDy=0;entryPerimeter=0;" edge="1" parent="WIyWlLk6GJQsqaUBKTNV-1" source="8Eqp4wqRQ_a_KoW9BMZ2-0" target="8Eqp4wqRQ_a_KoW9BMZ2-3">
          <mxGeometry relative="1" as="geometry" />
        </mxCell>
        <mxCell id="8Eqp4wqRQ_a_KoW9BMZ2-9" value="false" style="edgeStyle=orthogonalEdgeStyle;rounded=0;orthogonalLoop=1;jettySize=auto;html=1;" edge="1" parent="WIyWlLk6GJQsqaUBKTNV-1" source="8Eqp4wqRQ_a_KoW9BMZ2-7">
          <mxGeometry relative="1" as="geometry">
            <mxPoint x="480" y="389.9999999999999" as="targetPoint" />
          </mxGeometry>
        </mxCell>
        <mxCell id="8Eqp4wqRQ_a_KoW9BMZ2-11" value="true" style="edgeStyle=orthogonalEdgeStyle;rounded=0;orthogonalLoop=1;jettySize=auto;html=1;" edge="1" parent="WIyWlLk6GJQsqaUBKTNV-1" source="8Eqp4wqRQ_a_KoW9BMZ2-7">
          <mxGeometry relative="1" as="geometry">
            <mxPoint x="240.0000000000001" y="389.9999999999999" as="targetPoint" />
            <Array as="points">
              <mxPoint x="278" y="390" />
              <mxPoint x="240" y="391" />
            </Array>
          </mxGeometry>
        </mxCell>
        <mxCell id="8Eqp4wqRQ_a_KoW9BMZ2-12" style="edgeStyle=orthogonalEdgeStyle;rounded=0;orthogonalLoop=1;jettySize=auto;html=1;entryX=0.5;entryY=0;entryDx=0;entryDy=0;" edge="1" parent="WIyWlLk6GJQsqaUBKTNV-1" source="8Eqp4wqRQ_a_KoW9BMZ2-7" target="8Eqp4wqRQ_a_KoW9BMZ2-2">
          <mxGeometry relative="1" as="geometry" />
        </mxCell>
        <mxCell id="8Eqp4wqRQ_a_KoW9BMZ2-7" value="a&amp;gt;b" style="rhombus;whiteSpace=wrap;html=1;" vertex="1" parent="WIyWlLk6GJQsqaUBKTNV-1">
          <mxGeometry x="314" y="350" width="80" height="80" as="geometry" />
        </mxCell>
        <mxCell id="8Eqp4wqRQ_a_KoW9BMZ2-13" value="a&amp;gt;b" style="rounded=0;whiteSpace=wrap;html=1;" vertex="1" parent="WIyWlLk6GJQsqaUBKTNV-1">
          <mxGeometry x="120" y="360" width="120" height="60" as="geometry" />
        </mxCell>
        <mxCell id="8Eqp4wqRQ_a_KoW9BMZ2-14" value="a&amp;lt;b" style="rounded=0;whiteSpace=wrap;html=1;" vertex="1" parent="WIyWlLk6GJQsqaUBKTNV-1">
          <mxGeometry x="480" y="360" width="120" height="60" as="geometry" />
        </mxCell>
      </root>
    </mxGraphModel>
  </diagram>
</mxfile>
